<svg xmlns="http://www.w3.org/2000/svg" width="584.619" height="301.41" viewBox="0 0 584.619 301.41"><g transform="translate(-858.874 96.978)"><path d="M4787.874-648.978s36.064,93.7,72.464,127.4,75.16,49.545,75.16,49.882,41.12,19.211,89.654,8.426,71.622-7.752,92.182,0,38.423,27.3,59.32,31.008,48.281-10.533,81.312,24.183,32.356,44.153,59.994,47.86,48.534,0,48.534,0l-2.359-217.73Z" transform="translate(-3923 563)" fill="#496fda"/><path d="M4787.874-648.978s36.064,93.7,72.464,127.4,75.16,49.545,75.16,49.882,41.12,19.211,89.654,8.426,71.622-7.752,92.182,0,38.423,27.3,59.32,31.008,48.281-10.533,81.312,24.183,32.356,44.153,59.994,47.86,48.534,0,48.534,0l-2.359-217.73Z" transform="translate(-3929 552)" fill="#104057"/></g></svg>