<svg xmlns="http://www.w3.org/2000/svg" xmlns:xlink="http://www.w3.org/1999/xlink" width="639.962" height="576.857" viewBox="0 0 639.962 576.857"><defs><linearGradient id="a" x1="0.096" y1="0.836" x2="1.064" y2="-0.058" gradientUnits="objectBoundingBox"><stop offset="0" stop-color="#6086ee"/><stop offset="1" stop-color="#132351"/></linearGradient></defs><g transform="translate(217.5 201.285)"><path d="M277.375,737.923c0-80.848,70.376-146.388,157.19-146.388a169.869,169.869,0,0,1,23.542,1.631c2.536-75.634,72.547-136.255,158.542-136.255.705,0,1.417,0,2.119.012a103.23,103.23,0,0,1-1.408-17c0-67.133,64.962-121.554,145.1-121.554s145.1,54.422,145.1,121.554c0,65.018-60.943,118.114-137.58,121.395a125.69,125.69,0,0,1,5.284,36.1c0,77.6-71.013,140.506-158.612,140.506a180,180,0,0,1-24.9-1.721c.006.57.01,1.149.01,1.721,0,80.847-70.376,146.387-157.19,146.387S277.375,818.77,277.375,737.923Z" transform="matrix(-1, -0.017, 0.017, -1, 684.362, 698.729)" fill="#1d749e"/><path d="M277.375,706.787c0-74.848,57.422-135.524,128.255-135.524a122.445,122.445,0,0,1,19.209,1.51C426.908,502.752,484.032,446.63,554.2,446.63c.575,0,1.156,0,1.729.011a108.148,108.148,0,0,1-1.149-15.742c0-62.151,53-112.533,118.389-112.533s118.39,50.383,118.39,112.533c0,60.193-49.725,109.349-112.255,112.386a130.948,130.948,0,0,1,4.312,33.424c0,71.841-57.941,130.079-129.415,130.079a129.747,129.747,0,0,1-20.32-1.594c.005.528.008,1.064.008,1.594,0,74.847-57.422,135.523-128.255,135.523S277.375,781.634,277.375,706.787Z" transform="matrix(-1, -0.017, 0.017, -1, 617.095, 656.736)" fill="url(#a)"/></g></svg>