<svg id="top-shape" xmlns="http://www.w3.org/2000/svg" viewBox="0 0 487.742 216.952"><g transform="translate(-5023.94 862.501)"><path d="M-4888.909,803.9c-24.168-25.4-45.316-24.593-63.109-23.782-6.523.3-12.6.594-18.2-.4-20.9-3.708-38.76-23.257-59.32-31.008s-43.647-10.785-92.181,0-89.654-8.089-89.654-8.426-38.76-16.177-75.16-49.881c-14.246-13.192-28.44-35.571-40.441-57.926h486.6V849.429C-4857.217,844.338-4861.225,833-4888.909,803.9Z" transform="translate(10351.873 -1494.978)" fill="#496fda"/><path d="M5024.776-862a164.845,164.845,0,0,0,30.77,38.769c34,31.151,89.656,67.245,127.229,66.462,59.077-1.231,122.461-22.154,151.384-14.154s41.231,43.692,96.616,41.231,80.409,68.959,80.409,68.959V-862Z" fill="#104057" stroke="#707070" stroke-width="1"/></g></svg>