<svg xmlns="http://www.w3.org/2000/svg" xmlns:xlink="http://www.w3.org/1999/xlink" viewBox="0 0 52.736 53.695"><defs><linearGradient id="a" x1="0.5" x2="0.5" y2="1" gradientUnits="objectBoundingBox"><stop offset="0" stop-color="#0062bf"/><stop offset="1" stop-color="#003160"/></linearGradient><linearGradient id="b" x1="-26.615" y1="8.854" x2="-25.496" y2="8.854" gradientUnits="objectBoundingBox"><stop offset="0" stop-color="#9100d4"/><stop offset="0.189" stop-color="#00bfff"/><stop offset="0.379" stop-color="#00d474"/><stop offset="0.755" stop-color="#d600e9"/><stop offset="0.889" stop-color="#778ee2"/><stop offset="1" stop-color="#2affdc"/></linearGradient><linearGradient id="c" x1="-25.396" y1="7.508" x2="-24.267" y2="7.508" xlink:href="#b"/></defs><g transform="translate(-0.244 55.684) rotate(-90)"><path d="M2.176,29.288H2.168A25.91,25.91,0,0,1,6.75,11.215C15.177-.679,31.893-3.311,44.094,5.336A27.206,27.206,0,0,1,55.611,29.492l-.037,0s-3.722,7.082-12.837,4.8h0A15.8,15.8,0,0,0,15.971,17.749a15.337,15.337,0,0,0-.731,16.438A11.154,11.154,0,0,1,2.176,29.288Z" transform="translate(0)" fill="url(#a)"/><g transform="translate(2.168 29.288)"><path d="M91.22,103.721a25.854,25.854,0,0,0,21-23.488l-.037,0s-3.722,7.082-12.837,4.8h0a14.686,14.686,0,0,1-1.035,1.686,14.952,14.952,0,0,1-5.473,4.713h5.481Z" transform="translate(-58.775 -80.029)" fill="url(#b)"/><path d="M2.487,79.68H2.48A27.3,27.3,0,0,0,13.891,98.787a27.6,27.6,0,0,0,9.305,4.281L16.279,91.087h6.161a16.011,16.011,0,0,1-6.888-6.5A11.159,11.159,0,0,1,2.487,79.68Z" transform="translate(-2.48 -79.68)" fill="url(#c)"/></g></g></svg>